HIERARCHY
ROOT Hips
{
	OFFSET 60.340900 -6.998645 92.782303
	CHANNELS 6 Xposition Yposition Zposition Xrotation Yrotation Zrotation
	JOINT spine
	{
		OFFSET 0.000000 -0.429886 7.475601
		CHANNELS 3 Xrotation Yrotation Zrotation
		JOINT spine1
		{
			OFFSET 0.000000 -0.000002 9.923012
			CHANNELS 3 Xrotation Yrotation Zrotation
			JOINT spine2
			{
				OFFSET 0.000000 -0.000001 9.508041
				CHANNELS 3 Xrotation Yrotation Zrotation
				JOINT Neck
				{
					OFFSET 0.000000 -1.163844 24.411095
					CHANNELS 3 Xrotation Yrotation Zrotation
					JOINT Head
					{
						OFFSET 0.000000 -0.000001 7.375229
						CHANNELS 3 Xrotation Yrotation Zrotation
						End Site
						{
							OFFSET 0.000000 5.887407 17.852203
						}
					}
				}
				JOINT RightShoulder
				{
					OFFSET -4.003559 0.557467 10.267906
					CHANNELS 3 Xrotation Yrotation Zrotation
					JOINT RightArm
					{
						OFFSET 0.000000 -0.000002 13.467300
						CHANNELS 3 Xrotation Yrotation Zrotation
						JOINT RightArmRoll
						{
							OFFSET 0.000000 -0.000001 6.798584
							CHANNELS 3 Xrotation Yrotation Zrotation
							JOINT RightForeArm
							{
								OFFSET 0.000000 -0.000003 19.801804
								CHANNELS 3 Xrotation Yrotation Zrotation
								JOINT RightForeArmRoll
								{
									OFFSET 0.000000 -0.000001 7.629044
									CHANNELS 3 Xrotation Yrotation Zrotation
									JOINT RightHand
									{
										OFFSET 0.000000 -0.000002 15.309799
										CHANNELS 3 Xrotation Yrotation Zrotation
										End Site
										{
											OFFSET 0.000000 0.000000 0.100006
										}
									}
								}
							}
						}
					}
				}
				JOINT LeftShoulder
				{
					OFFSET 4.003559 0.557467 10.267906
					CHANNELS 3 Xrotation Yrotation Zrotation
					JOINT LeftArm
					{
						OFFSET 0.000000 -0.000002 13.467300
						CHANNELS 3 Xrotation Yrotation Zrotation
						JOINT LeftArmRoll
						{
							OFFSET 0.000000 -0.000001 6.798584
							CHANNELS 3 Xrotation Yrotation Zrotation
							JOINT LeftForeArm
							{
								OFFSET 0.000000 -0.000003 19.801804
								CHANNELS 3 Xrotation Yrotation Zrotation
								JOINT LeftForeArmRoll
								{
									OFFSET 0.000000 -0.000001 7.629044
									CHANNELS 3 Xrotation Yrotation Zrotation
									JOINT LeftHand
									{
										OFFSET 0.000000 -0.000002 15.309799
										CHANNELS 3 Xrotation Yrotation Zrotation
										End Site
										{
											OFFSET 0.000000 0.000000 0.100006
										}
									}
								}
							}
						}
					}
				}
			}
		}
	}
	JOINT RightUpLeg
	{
		OFFSET -6.626099 1.019270 -1.215050
		CHANNELS 3 Xrotation Yrotation Zrotation
		JOINT RightUpLegRoll
		{
			OFFSET 0.000000 -0.000003 17.951698
			CHANNELS 3 Xrotation Yrotation Zrotation
			JOINT RightLeg
			{
				OFFSET 0.000000 0.000003 -22.230400
				CHANNELS 3 Xrotation Yrotation Zrotation
				JOINT RightLegRoll
				{
					OFFSET 0.000000 -0.000003 22.303200
					CHANNELS 3 Xrotation Yrotation Zrotation
					JOINT RightFoot
					{
						OFFSET 0.000000 -0.000003 18.563599
						CHANNELS 3 Xrotation Yrotation Zrotation
						JOINT RightToeBase
						{
							OFFSET 0.000000 -0.000002 15.518295
							CHANNELS 3 Xrotation Yrotation Zrotation
							End Site
							{
								OFFSET 0.006577 0.866261 7.515381
							}
						}
					}
				}
			}
		}
	}
	JOINT LeftUpLeg
	{
		OFFSET 6.626102 1.019270 -1.215050
		CHANNELS 3 Xrotation Yrotation Zrotation
		JOINT LeftUpLegRoll
		{
			OFFSET 0.000000 -0.000003 17.951797
			CHANNELS 3 Xrotation Yrotation Zrotation
			JOINT LeftLeg
			{
				OFFSET 0.000000 -0.000004 22.230309
				CHANNELS 3 Xrotation Yrotation Zrotation
				JOINT LeftLegRoll
				{
					OFFSET 0.000000 -0.000004 22.509308
					CHANNELS 3 Xrotation Yrotation Zrotation
					JOINT LeftFoot
					{
						OFFSET 0.000000 -0.000003 18.357498
						CHANNELS 3 Xrotation Yrotation Zrotation
						JOINT LeftToeBase
						{
							OFFSET 0.000000 -0.000002 15.518295
							CHANNELS 3 Xrotation Yrotation Zrotation
							End Site
							{
								OFFSET -0.029480 0.866261 7.515396
							}
						}
					}
				}
			}
		}
	}
}
MOTION
Frames: 4
Frame Time: 0.041667
61.312405 -6.343777 92.584801 -10.443242 -2.656361 -3.427239 0.766782 0.269412 0.271417 5.548389 0.552690 0.526258 7.193443 0.559178 0.520457 3.820458 19.862728 -1.465091 3.420256 -18.024027 -1.564704 0.591615 -56.556401 0.971160 -32.735539 -121.437785 -20.352917 0.000001 -0.000000 -0.000003 0.246401 -9.628284 -0.747350 0.000001 0.000021 -3.000980 -5.000222 -7.998832 0.000139 -9.446082 82.084203 12.463693 -85.132584 108.343794 65.042969 0.000004 0.000020 -0.000003 2.497341 5.181153 0.706363 0.000001 -0.000004 3.004469 -5.000206 7.999361 -0.000090 -5.215056 -172.537668 3.745382 -179.999991 0.000005 -1.251996 151.024758 -0.803986 -1.377175 0.000001 -0.000003 0.508918 69.535622 6.918062 2.030541 30.477755 -7.093389 3.399435 4.924586 -172.577201 6.317914 -0.000005 -0.000004 -1.184520 -9.310583 4.177431 0.562938 -0.000005 -0.000001 -0.116946 71.184525 -6.934290 -1.855794 25.456953 7.355613 -0.000009 
61.319508 -6.338354 92.584396 -10.434799 -2.652313 -3.415069 0.766789 0.270019 0.271441 5.547442 0.552970 0.527041 7.192504 0.559459 0.521976 3.760723 19.825162 -1.461923 3.450399 -18.002422 -1.565725 0.564351 -56.536618 0.941377 -32.628616 -121.387556 -20.512412 -0.000000 -0.000000 -0.000004 0.408309 -9.807428 -0.721716 0.000002 0.000021 -3.000979 -5.000221 -7.998831 0.000139 -9.375844 82.103006 12.391478 -85.250897 108.228965 65.163912 0.000003 0.000020 -0.000002 2.740330 5.210139 0.700728 0.000000 -0.000004 3.004469 -5.000207 7.999362 -0.000090 -5.214647 -172.544635 3.743214 -179.999991 0.000005 -1.251995 151.035850 -0.807575 -1.377961 -0.000000 -0.000003 0.508925 69.533826 6.918059 2.030452 30.478063 -7.093382 3.397929 4.915137 -172.587050 6.308181 -0.000005 -0.000005 -1.184521 -9.312622 4.182728 0.563450 -0.000005 -0.000001 -0.116942 71.180004 -6.933301 -1.859010 25.456953 7.355613 -0.000010 
61.324909 -6.340767 92.584709 -10.426159 -2.648314 -3.402611 0.766689 0.270606 0.271476 5.546261 0.553160 0.527877 7.191312 0.559652 0.523598 3.702930 19.787126 -1.459288 3.479942 -17.979624 -1.567024 0.536219 -56.517650 0.910450 -32.523288 -121.336876 -20.672765 0.000000 0.000000 -0.000004 0.562437 -9.987649 -0.694944 0.000002 0.000021 -3.000980 -5.000222 -7.998832 0.000140 -9.301060 82.121796 12.314537 -85.372454 108.113275 65.286110 0.000003 0.000019 -0.000002 2.977319 5.238700 0.694826 0.000001 -0.000004 3.004470 -5.000207 7.999361 -0.000089 -5.214232 -172.550605 3.741051 -179.999991 0.000005 -1.251995 151.047011 -0.811165 -1.377733 0.000001 -0.000003 0.508933 69.532118 6.918061 2.030461 30.478363 -7.093388 3.396349 4.905584 -172.596913 6.298203 -0.000004 -0.000004 -1.184520 -9.314585 4.188291 0.563975 -0.000005 0.000000 -0.116935 71.175339 -6.932218 -1.862219 25.456955 7.355613 -0.000010 
61.324806 -6.341023 92.585411 -10.417413 -2.644356 -3.389957 0.766522 0.271177 0.271519 5.544909 0.553288 0.528749 7.189963 0.559782 0.525293 3.646499 19.748744 -1.457043 3.509085 -17.956040 -1.568533 0.507486 -56.499369 0.878732 -32.420094 -121.284762 -20.834896 -0.000000 -0.000000 -0.000003 0.711164 -10.168635 -0.667122 0.000002 0.000022 -3.000980 -5.000221 -7.998832 0.000139 -9.222948 82.140436 12.234132 -85.496763 107.997046 65.409730 0.000001 0.000020 -0.000000 3.210129 5.266961 0.688669 -0.000001 -0.000004 3.004470 -5.000209 7.999362 -0.000089 -5.213797 -172.557571 3.739028 -179.999991 0.000005 -1.251995 151.058294 -0.814756 -1.377515 0.000001 -0.000003 0.508943 69.530527 6.918034 2.030554 30.478773 -7.093385 3.394714 4.895975 -172.606776 6.288069 -0.000005 -0.000005 -1.184519 -9.316468 4.194041 0.564509 -0.000005 -0.000001 -0.116927 71.170380 -6.931165 -1.865555 25.456953 7.355613 -0.000010 
